<?xml version="1.0" encoding="UTF-8"?>
<svg width="140px" height="40px" viewBox="0 0 140 40" version="1.1" xmlns="http://www.w3.org/2000/svg" xmlns:xlink="http://www.w3.org/1999/xlink">
    <!-- Generator: Sketch 46 (44423) - http://www.bohemiancoding.com/sketch -->
    <title>Artboard 7</title>
    <desc>Created with Sketch.</desc>
    <defs>
        <linearGradient x1="0%" y1="0%" x2="101.999998%" y2="100.999999%" id="linearGradient-1">
            <stop stop-color="#5EA2FF" offset="0%"></stop>
            <stop stop-color="#00D5FF" offset="62.5956633%"></stop>
            <stop stop-color="#00E3FF" offset="100%"></stop>
        </linearGradient>
        <linearGradient x1="0%" y1="0%" x2="101.999998%" y2="100.999999%" id="linearGradient-2">
            <stop stop-color="#45ECF8" offset="0%"></stop>
            <stop stop-color="#40F6A4" offset="100%"></stop>
        </linearGradient>
        <linearGradient x1="0.514342843%" y1="5.42494946%" x2="85.5400698%" y2="103.521732%" id="linearGradient-3">
            <stop stop-color="#F6A623" offset="0%"></stop>
            <stop stop-color="#FCAE3D" offset="100%"></stop>
        </linearGradient>
        <linearGradient x1="0%" y1="0%" x2="101.999998%" y2="100.999999%" id="linearGradient-4">
            <stop stop-color="#7E6AFF" offset="0%"></stop>
            <stop stop-color="#6ABEFF" offset="100%"></stop>
        </linearGradient>
        <linearGradient x1="0%" y1="0%" x2="101.999998%" y2="100.999999%" id="linearGradient-5">
            <stop stop-color="#FF7675" offset="0%"></stop>
            <stop stop-color="#FC65E3" offset="100%"></stop>
        </linearGradient>
        <linearGradient x1="0.521640889%" y1="5.42896854%" x2="85.5465505%" y2="103.529882%" id="linearGradient-6">
            <stop stop-color="#F6A623" offset="0%"></stop>
            <stop stop-color="#FCAE3D" offset="100%"></stop>
        </linearGradient>
    </defs>
    <g id="Symbols" stroke="none" stroke-width="1" fill="none" fill-rule="evenodd">
        <g id="文件夹面1-2-copy" transform="translate(20.000000, 20.000000)">
            <g id="Group">
                <rect id="Rectangle-18" x="0" y="0" width="20" height="20"></rect>
                <g id="Page-1" transform="translate(0.000000, 1.428571)" fill="url(#linearGradient-1)">
                    <path d="M1.83171429,1.34035714 L7.45385714,1.34035714 C7.72457143,1.34035714 7.94528571,1.56035714 7.94528571,1.83107143 L7.94528571,1.94321429 C7.94528571,2.90321429 8.726,3.68464286 9.686,3.68464286 L16.6738571,3.68464286 C16.9445714,3.68464286 17.1652857,3.90464286 17.1652857,4.17535714 L17.1652857,5.47607143 L3.74528571,5.47607143 C2.92242857,5.47607143 2.20528571,6.06107143 2.03957143,6.8675 L1.341,10.2732143 L1.341,1.83107143 C1.341,1.56035714 1.561,1.34035714 1.83171429,1.34035714 M19.2652857,6.11678571 C19.0417143,5.8425 18.7452857,5.6475 18.4152857,5.54892857 L18.4152857,4.17535714 C18.4152857,3.21535714 17.6338571,2.43464286 16.6738571,2.43464286 L9.686,2.43464286 C9.41528571,2.43464286 9.19528571,2.21392857 9.19528571,1.94321429 L9.19528571,1.83107143 C9.19528571,0.871071429 8.41385714,0.0903571429 7.45385714,0.0903571429 L1.83171429,0.0903571429 C0.871714286,0.0903571429 0.0902857143,0.871071429 0.0902857143,1.83107143 L0.0902857143,16.4275 C0.0902857143,16.4296429 0.091,16.4317857 0.091,16.4339286 L0.091,16.4489286 C0.0917142857,16.4553571 0.0917142857,16.4617857 0.0924285714,16.4682143 C0.0924285714,16.4725 0.0924285714,16.4767857 0.0931428571,16.4810714 C0.0938571429,16.4882143 0.0945714286,16.4960714 0.0952857143,16.5032143 C0.096,16.5067857 0.096,16.5096429 0.0967142857,16.5125 C0.0981428571,16.5217857 0.0995714286,16.5303571 0.101,16.5396429 C0.101,16.5410714 0.101714286,16.5432143 0.101714286,16.5446429 C0.112428571,16.6010714 0.131,16.6553571 0.156,16.7053571 L0.156,16.7060714 C0.161,16.7153571 0.166,16.7246429 0.171,16.7339286 C0.171714286,16.7353571 0.173142857,16.7375 0.173857143,16.7389286 C0.178142857,16.7467857 0.183142857,16.7546429 0.188142857,16.7625 C0.189571429,16.7646429 0.191,16.7667857 0.192428571,16.7689286 C0.196714286,16.7760714 0.201714286,16.7832143 0.206714286,16.7903571 C0.208142857,16.7925 0.209571429,16.7946429 0.211714286,16.7967857 C0.216714286,16.8039286 0.222428571,16.8117857 0.228857143,16.8189286 C0.229571429,16.8196429 0.230285714,16.8210714 0.231,16.8225 C0.231714286,16.8225 0.231714286,16.8232143 0.231714286,16.8232143 C0.238857143,16.8317857 0.246,16.8403571 0.253857143,16.8482143 C0.255285714,16.8496429 0.256714286,16.8510714 0.258142857,16.8525 C0.263857143,16.8589286 0.270285714,16.8653571 0.276714286,16.8717857 C0.278857143,16.8746429 0.281714286,16.8775 0.284571429,16.8796429 C0.289571429,16.8846429 0.295285714,16.8896429 0.300285714,16.8946429 C0.303142857,16.8967857 0.306714286,16.8996429 0.309571429,16.9025 C0.315285714,16.9067857 0.320285714,16.9110714 0.326,16.9160714 C0.328857143,16.9182143 0.331714286,16.9203571 0.334571429,16.9225 C0.341,16.9275 0.347428571,16.9325 0.353857143,16.9367857 C0.356,16.9382143 0.358142857,16.9403571 0.361,16.9417857 C0.368857143,16.9475 0.377428571,16.9532143 0.386,16.9582143 C0.386714286,16.9589286 0.386714286,16.9589286 0.387428571,16.9596429 C0.426,16.9832143 0.467428571,17.0025 0.511,17.0182143 L0.511714286,17.0182143 C0.521714286,17.0217857 0.532428571,17.0246429 0.543142857,17.0282143 C0.543857143,17.0282143 0.544571429,17.0282143 0.545285714,17.0289286 C0.555285714,17.0317857 0.565285714,17.0339286 0.575285714,17.0360714 C0.576714286,17.0367857 0.578142857,17.0367857 0.578857143,17.0375 C0.588857143,17.0396429 0.598142857,17.0410714 0.607428571,17.0432143 C0.609571429,17.0432143 0.611714286,17.0432143 0.613142857,17.0439286 C0.622428571,17.0453571 0.631714286,17.0467857 0.640285714,17.0475 C0.643142857,17.0482143 0.645285714,17.0482143 0.647428571,17.0489286 C0.656,17.0496429 0.665285714,17.0503571 0.674571429,17.0510714 L0.681714286,17.0510714 C0.693142857,17.0517857 0.704571429,17.0525 0.716,17.0525 L17.1652857,17.0525 C17.4617143,17.0525 17.7174286,16.8439286 17.7774286,16.5532143 L19.6217143,7.5675 C19.7274286,7.0525 19.5974286,6.52392857 19.2652857,6.11678571" id="Fill-2"></path>
                </g>
            </g>
        </g>
        <g id="文件夹面2-2-copy" transform="translate(120.000000, 20.000000)">
            <g id="Group">
                <rect id="Rectangle-18" x="0" y="0" width="20" height="20"></rect>
                <g id="Page-1" transform="translate(0.000000, 1.428571)" fill="url(#linearGradient-2)">
                    <path d="M1.83171429,1.34035714 L7.45385714,1.34035714 C7.72457143,1.34035714 7.94528571,1.56035714 7.94528571,1.83107143 L7.94528571,1.94321429 C7.94528571,2.90321429 8.726,3.68464286 9.686,3.68464286 L16.6738571,3.68464286 C16.9445714,3.68464286 17.1652857,3.90464286 17.1652857,4.17535714 L17.1652857,5.47607143 L3.74528571,5.47607143 C2.92242857,5.47607143 2.20528571,6.06107143 2.03957143,6.8675 L1.341,10.2732143 L1.341,1.83107143 C1.341,1.56035714 1.561,1.34035714 1.83171429,1.34035714 M19.2652857,6.11678571 C19.0417143,5.8425 18.7452857,5.6475 18.4152857,5.54892857 L18.4152857,4.17535714 C18.4152857,3.21535714 17.6338571,2.43464286 16.6738571,2.43464286 L9.686,2.43464286 C9.41528571,2.43464286 9.19528571,2.21392857 9.19528571,1.94321429 L9.19528571,1.83107143 C9.19528571,0.871071429 8.41385714,0.0903571429 7.45385714,0.0903571429 L1.83171429,0.0903571429 C0.871714286,0.0903571429 0.0902857143,0.871071429 0.0902857143,1.83107143 L0.0902857143,16.4275 C0.0902857143,16.4296429 0.091,16.4317857 0.091,16.4339286 L0.091,16.4489286 C0.0917142857,16.4553571 0.0917142857,16.4617857 0.0924285714,16.4682143 C0.0924285714,16.4725 0.0924285714,16.4767857 0.0931428571,16.4810714 C0.0938571429,16.4882143 0.0945714286,16.4960714 0.0952857143,16.5032143 C0.096,16.5067857 0.096,16.5096429 0.0967142857,16.5125 C0.0981428571,16.5217857 0.0995714286,16.5303571 0.101,16.5396429 C0.101,16.5410714 0.101714286,16.5432143 0.101714286,16.5446429 C0.112428571,16.6010714 0.131,16.6553571 0.156,16.7053571 L0.156,16.7060714 C0.161,16.7153571 0.166,16.7246429 0.171,16.7339286 C0.171714286,16.7353571 0.173142857,16.7375 0.173857143,16.7389286 C0.178142857,16.7467857 0.183142857,16.7546429 0.188142857,16.7625 C0.189571429,16.7646429 0.191,16.7667857 0.192428571,16.7689286 C0.196714286,16.7760714 0.201714286,16.7832143 0.206714286,16.7903571 C0.208142857,16.7925 0.209571429,16.7946429 0.211714286,16.7967857 C0.216714286,16.8039286 0.222428571,16.8117857 0.228857143,16.8189286 C0.229571429,16.8196429 0.230285714,16.8210714 0.231,16.8225 C0.231714286,16.8225 0.231714286,16.8232143 0.231714286,16.8232143 C0.238857143,16.8317857 0.246,16.8403571 0.253857143,16.8482143 C0.255285714,16.8496429 0.256714286,16.8510714 0.258142857,16.8525 C0.263857143,16.8589286 0.270285714,16.8653571 0.276714286,16.8717857 C0.278857143,16.8746429 0.281714286,16.8775 0.284571429,16.8796429 C0.289571429,16.8846429 0.295285714,16.8896429 0.300285714,16.8946429 C0.303142857,16.8967857 0.306714286,16.8996429 0.309571429,16.9025 C0.315285714,16.9067857 0.320285714,16.9110714 0.326,16.9160714 C0.328857143,16.9182143 0.331714286,16.9203571 0.334571429,16.9225 C0.341,16.9275 0.347428571,16.9325 0.353857143,16.9367857 C0.356,16.9382143 0.358142857,16.9403571 0.361,16.9417857 C0.368857143,16.9475 0.377428571,16.9532143 0.386,16.9582143 C0.386714286,16.9589286 0.386714286,16.9589286 0.387428571,16.9596429 C0.426,16.9832143 0.467428571,17.0025 0.511,17.0182143 L0.511714286,17.0182143 C0.521714286,17.0217857 0.532428571,17.0246429 0.543142857,17.0282143 C0.543857143,17.0282143 0.544571429,17.0282143 0.545285714,17.0289286 C0.555285714,17.0317857 0.565285714,17.0339286 0.575285714,17.0360714 C0.576714286,17.0367857 0.578142857,17.0367857 0.578857143,17.0375 C0.588857143,17.0396429 0.598142857,17.0410714 0.607428571,17.0432143 C0.609571429,17.0432143 0.611714286,17.0432143 0.613142857,17.0439286 C0.622428571,17.0453571 0.631714286,17.0467857 0.640285714,17.0475 C0.643142857,17.0482143 0.645285714,17.0482143 0.647428571,17.0489286 C0.656,17.0496429 0.665285714,17.0503571 0.674571429,17.0510714 L0.681714286,17.0510714 C0.693142857,17.0517857 0.704571429,17.0525 0.716,17.0525 L17.1652857,17.0525 C17.4617143,17.0525 17.7174286,16.8439286 17.7774286,16.5532143 L19.6217143,7.5675 C19.7274286,7.0525 19.5974286,6.52392857 19.2652857,6.11678571" id="Fill-2"></path>
                </g>
            </g>
        </g>
        <g id="文件夹面3-2-copy" transform="translate(80.000000, 20.000000)">
            <g id="Group">
                <rect id="Rectangle-18" x="0" y="0" width="20" height="20"></rect>
                <g id="Page-1" transform="translate(0.000000, 1.428571)" fill="url(#linearGradient-3)">
                    <path d="M1.83171429,1.34035714 L7.45385714,1.34035714 C7.72457143,1.34035714 7.94528571,1.56035714 7.94528571,1.83107143 L7.94528571,1.94321429 C7.94528571,2.90321429 8.726,3.68464286 9.686,3.68464286 L16.6738571,3.68464286 C16.9445714,3.68464286 17.1652857,3.90464286 17.1652857,4.17535714 L17.1652857,5.47607143 L3.74528571,5.47607143 C2.92242857,5.47607143 2.20528571,6.06107143 2.03957143,6.8675 L1.341,10.2732143 L1.341,1.83107143 C1.341,1.56035714 1.561,1.34035714 1.83171429,1.34035714 M19.2652857,6.11678571 C19.0417143,5.8425 18.7452857,5.6475 18.4152857,5.54892857 L18.4152857,4.17535714 C18.4152857,3.21535714 17.6338571,2.43464286 16.6738571,2.43464286 L9.686,2.43464286 C9.41528571,2.43464286 9.19528571,2.21392857 9.19528571,1.94321429 L9.19528571,1.83107143 C9.19528571,0.871071429 8.41385714,0.0903571429 7.45385714,0.0903571429 L1.83171429,0.0903571429 C0.871714286,0.0903571429 0.0902857143,0.871071429 0.0902857143,1.83107143 L0.0902857143,16.4275 C0.0902857143,16.4296429 0.091,16.4317857 0.091,16.4339286 L0.091,16.4489286 C0.0917142857,16.4553571 0.0917142857,16.4617857 0.0924285714,16.4682143 C0.0924285714,16.4725 0.0924285714,16.4767857 0.0931428571,16.4810714 C0.0938571429,16.4882143 0.0945714286,16.4960714 0.0952857143,16.5032143 C0.096,16.5067857 0.096,16.5096429 0.0967142857,16.5125 C0.0981428571,16.5217857 0.0995714286,16.5303571 0.101,16.5396429 C0.101,16.5410714 0.101714286,16.5432143 0.101714286,16.5446429 C0.112428571,16.6010714 0.131,16.6553571 0.156,16.7053571 L0.156,16.7060714 C0.161,16.7153571 0.166,16.7246429 0.171,16.7339286 C0.171714286,16.7353571 0.173142857,16.7375 0.173857143,16.7389286 C0.178142857,16.7467857 0.183142857,16.7546429 0.188142857,16.7625 C0.189571429,16.7646429 0.191,16.7667857 0.192428571,16.7689286 C0.196714286,16.7760714 0.201714286,16.7832143 0.206714286,16.7903571 C0.208142857,16.7925 0.209571429,16.7946429 0.211714286,16.7967857 C0.216714286,16.8039286 0.222428571,16.8117857 0.228857143,16.8189286 C0.229571429,16.8196429 0.230285714,16.8210714 0.231,16.8225 C0.231714286,16.8225 0.231714286,16.8232143 0.231714286,16.8232143 C0.238857143,16.8317857 0.246,16.8403571 0.253857143,16.8482143 C0.255285714,16.8496429 0.256714286,16.8510714 0.258142857,16.8525 C0.263857143,16.8589286 0.270285714,16.8653571 0.276714286,16.8717857 C0.278857143,16.8746429 0.281714286,16.8775 0.284571429,16.8796429 C0.289571429,16.8846429 0.295285714,16.8896429 0.300285714,16.8946429 C0.303142857,16.8967857 0.306714286,16.8996429 0.309571429,16.9025 C0.315285714,16.9067857 0.320285714,16.9110714 0.326,16.9160714 C0.328857143,16.9182143 0.331714286,16.9203571 0.334571429,16.9225 C0.341,16.9275 0.347428571,16.9325 0.353857143,16.9367857 C0.356,16.9382143 0.358142857,16.9403571 0.361,16.9417857 C0.368857143,16.9475 0.377428571,16.9532143 0.386,16.9582143 C0.386714286,16.9589286 0.386714286,16.9589286 0.387428571,16.9596429 C0.426,16.9832143 0.467428571,17.0025 0.511,17.0182143 L0.511714286,17.0182143 C0.521714286,17.0217857 0.532428571,17.0246429 0.543142857,17.0282143 C0.543857143,17.0282143 0.544571429,17.0282143 0.545285714,17.0289286 C0.555285714,17.0317857 0.565285714,17.0339286 0.575285714,17.0360714 C0.576714286,17.0367857 0.578142857,17.0367857 0.578857143,17.0375 C0.588857143,17.0396429 0.598142857,17.0410714 0.607428571,17.0432143 C0.609571429,17.0432143 0.611714286,17.0432143 0.613142857,17.0439286 C0.622428571,17.0453571 0.631714286,17.0467857 0.640285714,17.0475 C0.643142857,17.0482143 0.645285714,17.0482143 0.647428571,17.0489286 C0.656,17.0496429 0.665285714,17.0503571 0.674571429,17.0510714 L0.681714286,17.0510714 C0.693142857,17.0517857 0.704571429,17.0525 0.716,17.0525 L17.1652857,17.0525 C17.4617143,17.0525 17.7174286,16.8439286 17.7774286,16.5532143 L19.6217143,7.5675 C19.7274286,7.0525 19.5974286,6.52392857 19.2652857,6.11678571" id="Fill-2"></path>
                </g>
            </g>
        </g>
        <g id="文件夹面4-2-copy" transform="translate(40.000000, 20.000000)">
            <g id="Group">
                <rect id="Rectangle-18" x="0" y="0" width="20" height="20"></rect>
                <g id="Page-1" transform="translate(0.000000, 1.428571)" fill="url(#linearGradient-4)">
                    <path d="M1.83171429,1.34035714 L7.45385714,1.34035714 C7.72457143,1.34035714 7.94528571,1.56035714 7.94528571,1.83107143 L7.94528571,1.94321429 C7.94528571,2.90321429 8.726,3.68464286 9.686,3.68464286 L16.6738571,3.68464286 C16.9445714,3.68464286 17.1652857,3.90464286 17.1652857,4.17535714 L17.1652857,5.47607143 L3.74528571,5.47607143 C2.92242857,5.47607143 2.20528571,6.06107143 2.03957143,6.8675 L1.341,10.2732143 L1.341,1.83107143 C1.341,1.56035714 1.561,1.34035714 1.83171429,1.34035714 M19.2652857,6.11678571 C19.0417143,5.8425 18.7452857,5.6475 18.4152857,5.54892857 L18.4152857,4.17535714 C18.4152857,3.21535714 17.6338571,2.43464286 16.6738571,2.43464286 L9.686,2.43464286 C9.41528571,2.43464286 9.19528571,2.21392857 9.19528571,1.94321429 L9.19528571,1.83107143 C9.19528571,0.871071429 8.41385714,0.0903571429 7.45385714,0.0903571429 L1.83171429,0.0903571429 C0.871714286,0.0903571429 0.0902857143,0.871071429 0.0902857143,1.83107143 L0.0902857143,16.4275 C0.0902857143,16.4296429 0.091,16.4317857 0.091,16.4339286 L0.091,16.4489286 C0.0917142857,16.4553571 0.0917142857,16.4617857 0.0924285714,16.4682143 C0.0924285714,16.4725 0.0924285714,16.4767857 0.0931428571,16.4810714 C0.0938571429,16.4882143 0.0945714286,16.4960714 0.0952857143,16.5032143 C0.096,16.5067857 0.096,16.5096429 0.0967142857,16.5125 C0.0981428571,16.5217857 0.0995714286,16.5303571 0.101,16.5396429 C0.101,16.5410714 0.101714286,16.5432143 0.101714286,16.5446429 C0.112428571,16.6010714 0.131,16.6553571 0.156,16.7053571 L0.156,16.7060714 C0.161,16.7153571 0.166,16.7246429 0.171,16.7339286 C0.171714286,16.7353571 0.173142857,16.7375 0.173857143,16.7389286 C0.178142857,16.7467857 0.183142857,16.7546429 0.188142857,16.7625 C0.189571429,16.7646429 0.191,16.7667857 0.192428571,16.7689286 C0.196714286,16.7760714 0.201714286,16.7832143 0.206714286,16.7903571 C0.208142857,16.7925 0.209571429,16.7946429 0.211714286,16.7967857 C0.216714286,16.8039286 0.222428571,16.8117857 0.228857143,16.8189286 C0.229571429,16.8196429 0.230285714,16.8210714 0.231,16.8225 C0.231714286,16.8225 0.231714286,16.8232143 0.231714286,16.8232143 C0.238857143,16.8317857 0.246,16.8403571 0.253857143,16.8482143 C0.255285714,16.8496429 0.256714286,16.8510714 0.258142857,16.8525 C0.263857143,16.8589286 0.270285714,16.8653571 0.276714286,16.8717857 C0.278857143,16.8746429 0.281714286,16.8775 0.284571429,16.8796429 C0.289571429,16.8846429 0.295285714,16.8896429 0.300285714,16.8946429 C0.303142857,16.8967857 0.306714286,16.8996429 0.309571429,16.9025 C0.315285714,16.9067857 0.320285714,16.9110714 0.326,16.9160714 C0.328857143,16.9182143 0.331714286,16.9203571 0.334571429,16.9225 C0.341,16.9275 0.347428571,16.9325 0.353857143,16.9367857 C0.356,16.9382143 0.358142857,16.9403571 0.361,16.9417857 C0.368857143,16.9475 0.377428571,16.9532143 0.386,16.9582143 C0.386714286,16.9589286 0.386714286,16.9589286 0.387428571,16.9596429 C0.426,16.9832143 0.467428571,17.0025 0.511,17.0182143 L0.511714286,17.0182143 C0.521714286,17.0217857 0.532428571,17.0246429 0.543142857,17.0282143 C0.543857143,17.0282143 0.544571429,17.0282143 0.545285714,17.0289286 C0.555285714,17.0317857 0.565285714,17.0339286 0.575285714,17.0360714 C0.576714286,17.0367857 0.578142857,17.0367857 0.578857143,17.0375 C0.588857143,17.0396429 0.598142857,17.0410714 0.607428571,17.0432143 C0.609571429,17.0432143 0.611714286,17.0432143 0.613142857,17.0439286 C0.622428571,17.0453571 0.631714286,17.0467857 0.640285714,17.0475 C0.643142857,17.0482143 0.645285714,17.0482143 0.647428571,17.0489286 C0.656,17.0496429 0.665285714,17.0503571 0.674571429,17.0510714 L0.681714286,17.0510714 C0.693142857,17.0517857 0.704571429,17.0525 0.716,17.0525 L17.1652857,17.0525 C17.4617143,17.0525 17.7174286,16.8439286 17.7774286,16.5532143 L19.6217143,7.5675 C19.7274286,7.0525 19.5974286,6.52392857 19.2652857,6.11678571" id="Fill-2"></path>
                </g>
            </g>
        </g>
        <g id="文件夹面5-2-copy" transform="translate(100.000000, 20.000000)">
            <g id="Group">
                <rect id="Rectangle-18" x="0" y="0" width="20" height="20"></rect>
                <g id="Page-1" transform="translate(0.000000, 1.428571)" fill="#F7E73A">
                    <path d="M1.83171429,1.34035714 L7.45385714,1.34035714 C7.72457143,1.34035714 7.94528571,1.56035714 7.94528571,1.83107143 L7.94528571,1.94321429 C7.94528571,2.90321429 8.726,3.68464286 9.686,3.68464286 L16.6738571,3.68464286 C16.9445714,3.68464286 17.1652857,3.90464286 17.1652857,4.17535714 L17.1652857,5.47607143 L3.74528571,5.47607143 C2.92242857,5.47607143 2.20528571,6.06107143 2.03957143,6.8675 L1.341,10.2732143 L1.341,1.83107143 C1.341,1.56035714 1.561,1.34035714 1.83171429,1.34035714 M19.2652857,6.11678571 C19.0417143,5.8425 18.7452857,5.6475 18.4152857,5.54892857 L18.4152857,4.17535714 C18.4152857,3.21535714 17.6338571,2.43464286 16.6738571,2.43464286 L9.686,2.43464286 C9.41528571,2.43464286 9.19528571,2.21392857 9.19528571,1.94321429 L9.19528571,1.83107143 C9.19528571,0.871071429 8.41385714,0.0903571429 7.45385714,0.0903571429 L1.83171429,0.0903571429 C0.871714286,0.0903571429 0.0902857143,0.871071429 0.0902857143,1.83107143 L0.0902857143,16.4275 C0.0902857143,16.4296429 0.091,16.4317857 0.091,16.4339286 L0.091,16.4489286 C0.0917142857,16.4553571 0.0917142857,16.4617857 0.0924285714,16.4682143 C0.0924285714,16.4725 0.0924285714,16.4767857 0.0931428571,16.4810714 C0.0938571429,16.4882143 0.0945714286,16.4960714 0.0952857143,16.5032143 C0.096,16.5067857 0.096,16.5096429 0.0967142857,16.5125 C0.0981428571,16.5217857 0.0995714286,16.5303571 0.101,16.5396429 C0.101,16.5410714 0.101714286,16.5432143 0.101714286,16.5446429 C0.112428571,16.6010714 0.131,16.6553571 0.156,16.7053571 L0.156,16.7060714 C0.161,16.7153571 0.166,16.7246429 0.171,16.7339286 C0.171714286,16.7353571 0.173142857,16.7375 0.173857143,16.7389286 C0.178142857,16.7467857 0.183142857,16.7546429 0.188142857,16.7625 C0.189571429,16.7646429 0.191,16.7667857 0.192428571,16.7689286 C0.196714286,16.7760714 0.201714286,16.7832143 0.206714286,16.7903571 C0.208142857,16.7925 0.209571429,16.7946429 0.211714286,16.7967857 C0.216714286,16.8039286 0.222428571,16.8117857 0.228857143,16.8189286 C0.229571429,16.8196429 0.230285714,16.8210714 0.231,16.8225 C0.231714286,16.8225 0.231714286,16.8232143 0.231714286,16.8232143 C0.238857143,16.8317857 0.246,16.8403571 0.253857143,16.8482143 C0.255285714,16.8496429 0.256714286,16.8510714 0.258142857,16.8525 C0.263857143,16.8589286 0.270285714,16.8653571 0.276714286,16.8717857 C0.278857143,16.8746429 0.281714286,16.8775 0.284571429,16.8796429 C0.289571429,16.8846429 0.295285714,16.8896429 0.300285714,16.8946429 C0.303142857,16.8967857 0.306714286,16.8996429 0.309571429,16.9025 C0.315285714,16.9067857 0.320285714,16.9110714 0.326,16.9160714 C0.328857143,16.9182143 0.331714286,16.9203571 0.334571429,16.9225 C0.341,16.9275 0.347428571,16.9325 0.353857143,16.9367857 C0.356,16.9382143 0.358142857,16.9403571 0.361,16.9417857 C0.368857143,16.9475 0.377428571,16.9532143 0.386,16.9582143 C0.386714286,16.9589286 0.386714286,16.9589286 0.387428571,16.9596429 C0.426,16.9832143 0.467428571,17.0025 0.511,17.0182143 L0.511714286,17.0182143 C0.521714286,17.0217857 0.532428571,17.0246429 0.543142857,17.0282143 C0.543857143,17.0282143 0.544571429,17.0282143 0.545285714,17.0289286 C0.555285714,17.0317857 0.565285714,17.0339286 0.575285714,17.0360714 C0.576714286,17.0367857 0.578142857,17.0367857 0.578857143,17.0375 C0.588857143,17.0396429 0.598142857,17.0410714 0.607428571,17.0432143 C0.609571429,17.0432143 0.611714286,17.0432143 0.613142857,17.0439286 C0.622428571,17.0453571 0.631714286,17.0467857 0.640285714,17.0475 C0.643142857,17.0482143 0.645285714,17.0482143 0.647428571,17.0489286 C0.656,17.0496429 0.665285714,17.0503571 0.674571429,17.0510714 L0.681714286,17.0510714 C0.693142857,17.0517857 0.704571429,17.0525 0.716,17.0525 L17.1652857,17.0525 C17.4617143,17.0525 17.7174286,16.8439286 17.7774286,16.5532143 L19.6217143,7.5675 C19.7274286,7.0525 19.5974286,6.52392857 19.2652857,6.11678571" id="Fill-2"></path>
                </g>
            </g>
        </g>
        <g id="文件夹面6-2-copy" transform="translate(60.000000, 20.000000)">
            <g id="Group">
                <rect id="Rectangle-18" x="0" y="0" width="20" height="20"></rect>
                <g id="Page-1" transform="translate(0.000000, 1.428571)" fill="url(#linearGradient-5)">
                    <path d="M1.83171429,1.34035714 L7.45385714,1.34035714 C7.72457143,1.34035714 7.94528571,1.56035714 7.94528571,1.83107143 L7.94528571,1.94321429 C7.94528571,2.90321429 8.726,3.68464286 9.686,3.68464286 L16.6738571,3.68464286 C16.9445714,3.68464286 17.1652857,3.90464286 17.1652857,4.17535714 L17.1652857,5.47607143 L3.74528571,5.47607143 C2.92242857,5.47607143 2.20528571,6.06107143 2.03957143,6.8675 L1.341,10.2732143 L1.341,1.83107143 C1.341,1.56035714 1.561,1.34035714 1.83171429,1.34035714 M19.2652857,6.11678571 C19.0417143,5.8425 18.7452857,5.6475 18.4152857,5.54892857 L18.4152857,4.17535714 C18.4152857,3.21535714 17.6338571,2.43464286 16.6738571,2.43464286 L9.686,2.43464286 C9.41528571,2.43464286 9.19528571,2.21392857 9.19528571,1.94321429 L9.19528571,1.83107143 C9.19528571,0.871071429 8.41385714,0.0903571429 7.45385714,0.0903571429 L1.83171429,0.0903571429 C0.871714286,0.0903571429 0.0902857143,0.871071429 0.0902857143,1.83107143 L0.0902857143,16.4275 C0.0902857143,16.4296429 0.091,16.4317857 0.091,16.4339286 L0.091,16.4489286 C0.0917142857,16.4553571 0.0917142857,16.4617857 0.0924285714,16.4682143 C0.0924285714,16.4725 0.0924285714,16.4767857 0.0931428571,16.4810714 C0.0938571429,16.4882143 0.0945714286,16.4960714 0.0952857143,16.5032143 C0.096,16.5067857 0.096,16.5096429 0.0967142857,16.5125 C0.0981428571,16.5217857 0.0995714286,16.5303571 0.101,16.5396429 C0.101,16.5410714 0.101714286,16.5432143 0.101714286,16.5446429 C0.112428571,16.6010714 0.131,16.6553571 0.156,16.7053571 L0.156,16.7060714 C0.161,16.7153571 0.166,16.7246429 0.171,16.7339286 C0.171714286,16.7353571 0.173142857,16.7375 0.173857143,16.7389286 C0.178142857,16.7467857 0.183142857,16.7546429 0.188142857,16.7625 C0.189571429,16.7646429 0.191,16.7667857 0.192428571,16.7689286 C0.196714286,16.7760714 0.201714286,16.7832143 0.206714286,16.7903571 C0.208142857,16.7925 0.209571429,16.7946429 0.211714286,16.7967857 C0.216714286,16.8039286 0.222428571,16.8117857 0.228857143,16.8189286 C0.229571429,16.8196429 0.230285714,16.8210714 0.231,16.8225 C0.231714286,16.8225 0.231714286,16.8232143 0.231714286,16.8232143 C0.238857143,16.8317857 0.246,16.8403571 0.253857143,16.8482143 C0.255285714,16.8496429 0.256714286,16.8510714 0.258142857,16.8525 C0.263857143,16.8589286 0.270285714,16.8653571 0.276714286,16.8717857 C0.278857143,16.8746429 0.281714286,16.8775 0.284571429,16.8796429 C0.289571429,16.8846429 0.295285714,16.8896429 0.300285714,16.8946429 C0.303142857,16.8967857 0.306714286,16.8996429 0.309571429,16.9025 C0.315285714,16.9067857 0.320285714,16.9110714 0.326,16.9160714 C0.328857143,16.9182143 0.331714286,16.9203571 0.334571429,16.9225 C0.341,16.9275 0.347428571,16.9325 0.353857143,16.9367857 C0.356,16.9382143 0.358142857,16.9403571 0.361,16.9417857 C0.368857143,16.9475 0.377428571,16.9532143 0.386,16.9582143 C0.386714286,16.9589286 0.386714286,16.9589286 0.387428571,16.9596429 C0.426,16.9832143 0.467428571,17.0025 0.511,17.0182143 L0.511714286,17.0182143 C0.521714286,17.0217857 0.532428571,17.0246429 0.543142857,17.0282143 C0.543857143,17.0282143 0.544571429,17.0282143 0.545285714,17.0289286 C0.555285714,17.0317857 0.565285714,17.0339286 0.575285714,17.0360714 C0.576714286,17.0367857 0.578142857,17.0367857 0.578857143,17.0375 C0.588857143,17.0396429 0.598142857,17.0410714 0.607428571,17.0432143 C0.609571429,17.0432143 0.611714286,17.0432143 0.613142857,17.0439286 C0.622428571,17.0453571 0.631714286,17.0467857 0.640285714,17.0475 C0.643142857,17.0482143 0.645285714,17.0482143 0.647428571,17.0489286 C0.656,17.0496429 0.665285714,17.0503571 0.674571429,17.0510714 L0.681714286,17.0510714 C0.693142857,17.0517857 0.704571429,17.0525 0.716,17.0525 L17.1652857,17.0525 C17.4617143,17.0525 17.7174286,16.8439286 17.7774286,16.5532143 L19.6217143,7.5675 C19.7274286,7.0525 19.5974286,6.52392857 19.2652857,6.11678571" id="Fill-2"></path>
                </g>
            </g>
        </g>
        <g id="文件夹线1-1-copy" transform="translate(20.000000, 0.000000)">
            <g id="Group">
                <rect id="Rectangle" x="0" y="0" width="20" height="20"></rect>
                <g id="Page-1" transform="translate(0.000000, 1.428571)" fill="#07AEFC">
                    <path d="M18.397,7.316 L16.6555714,15.8024286 L1.482,15.8024286 L3.26414286,7.11885714 C3.31057143,6.891 3.51271429,6.726 3.74485714,6.726 L17.9162857,6.726 C18.1191429,6.726 18.2412857,6.83957143 18.2962857,6.90671429 C18.3512857,6.97457143 18.4377143,7.11742857 18.397,7.316 M1.832,1.34028571 L7.45414286,1.34028571 C7.72485714,1.34028571 7.94485714,1.561 7.94485714,1.83171429 L7.94485714,1.94314286 C7.94485714,2.90385714 8.72628571,3.68457143 9.68628571,3.68457143 L16.6741429,3.68457143 C16.9448571,3.68457143 17.1648571,3.90457143 17.1648571,4.17528571 L17.1648571,5.476 L3.74485714,5.476 C2.922,5.476 2.20485714,6.061 2.03985714,6.86742857 L1.34057143,10.2731429 L1.34057143,1.83171429 C1.34057143,1.561 1.56057143,1.34028571 1.832,1.34028571 M18.4148571,5.54885714 L18.4148571,4.17528571 C18.4148571,3.21528571 17.6341429,2.43457143 16.6741429,2.43457143 L9.68628571,2.43457143 C9.41557143,2.43457143 9.19485714,2.21457143 9.19485714,1.94314286 L9.19485714,1.83171429 C9.19485714,0.871714286 8.41414286,0.0902857143 7.45414286,0.0902857143 L1.832,0.0902857143 C0.872,0.0902857143 0.0905714286,0.871714286 0.0905714286,1.83171429 L0.0905714286,16.4274286 L0.0905714286,16.4338571 C0.0905714286,16.4388571 0.0912857143,16.4438571 0.0912857143,16.4488571 C0.0912857143,16.4552857 0.092,16.4617143 0.092,16.4681429 C0.0927142857,16.4724286 0.0927142857,16.4767143 0.0927142857,16.481 C0.0934285714,16.4888571 0.0941428571,16.496 0.0955714286,16.5031429 C0.0955714286,16.5067143 0.0962857143,16.5095714 0.0962857143,16.5131429 C0.0977142857,16.5217143 0.0991428571,16.5302857 0.100571429,16.5395714 C0.101285714,16.541 0.101285714,16.5431429 0.102,16.5445714 C0.112714286,16.601 0.130571429,16.6552857 0.155571429,16.7052857 C0.156285714,16.7052857 0.156285714,16.706 0.156285714,16.706 C0.161285714,16.716 0.166285714,16.7252857 0.171285714,16.7338571 C0.172,16.736 0.172714286,16.7374286 0.174142857,16.7388571 C0.178428571,16.7467143 0.183428571,16.7545714 0.187714286,16.7624286 C0.189142857,16.7645714 0.190571429,16.7667143 0.192,16.7688571 C0.197,16.776 0.202,16.7831429 0.207,16.7902857 C0.208428571,16.7924286 0.209857143,16.7945714 0.211285714,16.7967143 C0.217,16.8038571 0.222714286,16.8117143 0.228428571,16.8188571 C0.229142857,16.8195714 0.230571429,16.821 0.231285714,16.8224286 L0.232,16.8231429 C0.239142857,16.8317143 0.246285714,16.8402857 0.253428571,16.8481429 C0.254857143,16.8502857 0.257,16.8517143 0.258428571,16.8531429 C0.264142857,16.8595714 0.269857143,16.866 0.276285714,16.8717143 C0.279142857,16.8745714 0.282,16.8774286 0.284857143,16.8802857 C0.289857143,16.8845714 0.294857143,16.8895714 0.300571429,16.8945714 C0.303428571,16.8967143 0.306285714,16.8995714 0.309857143,16.9024286 C0.314857143,16.9067143 0.320571429,16.9117143 0.325571429,16.916 C0.329142857,16.9181429 0.332,16.9202857 0.334857143,16.9231429 C0.341285714,16.9274286 0.347,16.9324286 0.353428571,16.9367143 C0.356285714,16.9381429 0.358428571,16.9402857 0.360571429,16.9417143 C0.369142857,16.9474286 0.377,16.9531429 0.385571429,16.9581429 C0.385571429,16.9581429 0.387,16.9588571 0.387714286,16.9595714 C0.426285714,16.9831429 0.467714286,17.0031429 0.511285714,17.0181429 L0.511285714,17.0181429 C0.522,17.0217143 0.532,17.0252857 0.542714286,17.0281429 C0.543428571,17.0281429 0.544142857,17.0281429 0.545571429,17.0288571 C0.554857143,17.0317143 0.564857143,17.0338571 0.574857143,17.036 C0.576285714,17.0367143 0.577714286,17.0367143 0.579142857,17.0374286 C0.588428571,17.0395714 0.598428571,17.041 0.607714286,17.0431429 C0.609857143,17.0431429 0.611285714,17.0438571 0.613428571,17.0438571 C0.622,17.0452857 0.631285714,17.0467143 0.640571429,17.0474286 C0.642714286,17.0481429 0.644857143,17.0481429 0.647714286,17.0488571 C0.656285714,17.0495714 0.665571429,17.0502857 0.674142857,17.051 C0.677,17.051 0.679142857,17.051 0.681285714,17.0517143 C0.692714286,17.0517143 0.704142857,17.0524286 0.715571429,17.0524286 L17.1648571,17.0524286 C17.462,17.0524286 17.7177143,16.8438571 17.7777143,16.5531429 L19.6212857,7.56742857 C19.727,7.05242857 19.597,6.52385714 19.2648571,6.11671429 C19.0412857,5.84242857 18.7455714,5.64742857 18.4148571,5.54885714" id="Fill-2"></path>
                </g>
            </g>
        </g>
        <g id="文件夹线1-1-copy-2">
            <g id="Group">
                <rect id="Rectangle" x="0" y="0" width="20" height="20"></rect>
                <g id="Page-1" transform="translate(0.000000, 1.428571)" fill="#9B9B9B">
                    <path d="M18.397,7.316 L16.6555714,15.8024286 L1.482,15.8024286 L3.26414286,7.11885714 C3.31057143,6.891 3.51271429,6.726 3.74485714,6.726 L17.9162857,6.726 C18.1191429,6.726 18.2412857,6.83957143 18.2962857,6.90671429 C18.3512857,6.97457143 18.4377143,7.11742857 18.397,7.316 M1.832,1.34028571 L7.45414286,1.34028571 C7.72485714,1.34028571 7.94485714,1.561 7.94485714,1.83171429 L7.94485714,1.94314286 C7.94485714,2.90385714 8.72628571,3.68457143 9.68628571,3.68457143 L16.6741429,3.68457143 C16.9448571,3.68457143 17.1648571,3.90457143 17.1648571,4.17528571 L17.1648571,5.476 L3.74485714,5.476 C2.922,5.476 2.20485714,6.061 2.03985714,6.86742857 L1.34057143,10.2731429 L1.34057143,1.83171429 C1.34057143,1.561 1.56057143,1.34028571 1.832,1.34028571 M18.4148571,5.54885714 L18.4148571,4.17528571 C18.4148571,3.21528571 17.6341429,2.43457143 16.6741429,2.43457143 L9.68628571,2.43457143 C9.41557143,2.43457143 9.19485714,2.21457143 9.19485714,1.94314286 L9.19485714,1.83171429 C9.19485714,0.871714286 8.41414286,0.0902857143 7.45414286,0.0902857143 L1.832,0.0902857143 C0.872,0.0902857143 0.0905714286,0.871714286 0.0905714286,1.83171429 L0.0905714286,16.4274286 L0.0905714286,16.4338571 C0.0905714286,16.4388571 0.0912857143,16.4438571 0.0912857143,16.4488571 C0.0912857143,16.4552857 0.092,16.4617143 0.092,16.4681429 C0.0927142857,16.4724286 0.0927142857,16.4767143 0.0927142857,16.481 C0.0934285714,16.4888571 0.0941428571,16.496 0.0955714286,16.5031429 C0.0955714286,16.5067143 0.0962857143,16.5095714 0.0962857143,16.5131429 C0.0977142857,16.5217143 0.0991428571,16.5302857 0.100571429,16.5395714 C0.101285714,16.541 0.101285714,16.5431429 0.102,16.5445714 C0.112714286,16.601 0.130571429,16.6552857 0.155571429,16.7052857 C0.156285714,16.7052857 0.156285714,16.706 0.156285714,16.706 C0.161285714,16.716 0.166285714,16.7252857 0.171285714,16.7338571 C0.172,16.736 0.172714286,16.7374286 0.174142857,16.7388571 C0.178428571,16.7467143 0.183428571,16.7545714 0.187714286,16.7624286 C0.189142857,16.7645714 0.190571429,16.7667143 0.192,16.7688571 C0.197,16.776 0.202,16.7831429 0.207,16.7902857 C0.208428571,16.7924286 0.209857143,16.7945714 0.211285714,16.7967143 C0.217,16.8038571 0.222714286,16.8117143 0.228428571,16.8188571 C0.229142857,16.8195714 0.230571429,16.821 0.231285714,16.8224286 L0.232,16.8231429 C0.239142857,16.8317143 0.246285714,16.8402857 0.253428571,16.8481429 C0.254857143,16.8502857 0.257,16.8517143 0.258428571,16.8531429 C0.264142857,16.8595714 0.269857143,16.866 0.276285714,16.8717143 C0.279142857,16.8745714 0.282,16.8774286 0.284857143,16.8802857 C0.289857143,16.8845714 0.294857143,16.8895714 0.300571429,16.8945714 C0.303428571,16.8967143 0.306285714,16.8995714 0.309857143,16.9024286 C0.314857143,16.9067143 0.320571429,16.9117143 0.325571429,16.916 C0.329142857,16.9181429 0.332,16.9202857 0.334857143,16.9231429 C0.341285714,16.9274286 0.347,16.9324286 0.353428571,16.9367143 C0.356285714,16.9381429 0.358428571,16.9402857 0.360571429,16.9417143 C0.369142857,16.9474286 0.377,16.9531429 0.385571429,16.9581429 C0.385571429,16.9581429 0.387,16.9588571 0.387714286,16.9595714 C0.426285714,16.9831429 0.467714286,17.0031429 0.511285714,17.0181429 L0.511285714,17.0181429 C0.522,17.0217143 0.532,17.0252857 0.542714286,17.0281429 C0.543428571,17.0281429 0.544142857,17.0281429 0.545571429,17.0288571 C0.554857143,17.0317143 0.564857143,17.0338571 0.574857143,17.036 C0.576285714,17.0367143 0.577714286,17.0367143 0.579142857,17.0374286 C0.588428571,17.0395714 0.598428571,17.041 0.607714286,17.0431429 C0.609857143,17.0431429 0.611285714,17.0438571 0.613428571,17.0438571 C0.622,17.0452857 0.631285714,17.0467143 0.640571429,17.0474286 C0.642714286,17.0481429 0.644857143,17.0481429 0.647714286,17.0488571 C0.656285714,17.0495714 0.665571429,17.0502857 0.674142857,17.051 C0.677,17.051 0.679142857,17.051 0.681285714,17.0517143 C0.692714286,17.0517143 0.704142857,17.0524286 0.715571429,17.0524286 L17.1648571,17.0524286 C17.462,17.0524286 17.7177143,16.8438571 17.7777143,16.5531429 L19.6212857,7.56742857 C19.727,7.05242857 19.597,6.52385714 19.2648571,6.11671429 C19.0412857,5.84242857 18.7455714,5.64742857 18.4148571,5.54885714" id="Fill-2"></path>
                </g>
            </g>
        </g>
        <g id="文件夹线1-1-copy-3" transform="translate(0.000000, 20.000000)">
            <g id="Group" fill="#FFFFFF">
                <rect id="Rectangle" x="0" y="0" width="20" height="20"></rect>
            </g>
            <g id="Group-Copy">
                <rect id="Rectangle-18" x="0" y="0" width="20" height="20"></rect>
                <g id="Page-1" transform="translate(0.000000, 1.428571)" fill="#9B9B9B">
                    <path d="M1.83171429,1.34035714 L7.45385714,1.34035714 C7.72457143,1.34035714 7.94528571,1.56035714 7.94528571,1.83107143 L7.94528571,1.94321429 C7.94528571,2.90321429 8.726,3.68464286 9.686,3.68464286 L16.6738571,3.68464286 C16.9445714,3.68464286 17.1652857,3.90464286 17.1652857,4.17535714 L17.1652857,5.47607143 L3.74528571,5.47607143 C2.92242857,5.47607143 2.20528571,6.06107143 2.03957143,6.8675 L1.341,10.2732143 L1.341,1.83107143 C1.341,1.56035714 1.561,1.34035714 1.83171429,1.34035714 M19.2652857,6.11678571 C19.0417143,5.8425 18.7452857,5.6475 18.4152857,5.54892857 L18.4152857,4.17535714 C18.4152857,3.21535714 17.6338571,2.43464286 16.6738571,2.43464286 L9.686,2.43464286 C9.41528571,2.43464286 9.19528571,2.21392857 9.19528571,1.94321429 L9.19528571,1.83107143 C9.19528571,0.871071429 8.41385714,0.0903571429 7.45385714,0.0903571429 L1.83171429,0.0903571429 C0.871714286,0.0903571429 0.0902857143,0.871071429 0.0902857143,1.83107143 L0.0902857143,16.4275 C0.0902857143,16.4296429 0.091,16.4317857 0.091,16.4339286 L0.091,16.4489286 C0.0917142857,16.4553571 0.0917142857,16.4617857 0.0924285714,16.4682143 C0.0924285714,16.4725 0.0924285714,16.4767857 0.0931428571,16.4810714 C0.0938571429,16.4882143 0.0945714286,16.4960714 0.0952857143,16.5032143 C0.096,16.5067857 0.096,16.5096429 0.0967142857,16.5125 C0.0981428571,16.5217857 0.0995714286,16.5303571 0.101,16.5396429 C0.101,16.5410714 0.101714286,16.5432143 0.101714286,16.5446429 C0.112428571,16.6010714 0.131,16.6553571 0.156,16.7053571 L0.156,16.7060714 C0.161,16.7153571 0.166,16.7246429 0.171,16.7339286 C0.171714286,16.7353571 0.173142857,16.7375 0.173857143,16.7389286 C0.178142857,16.7467857 0.183142857,16.7546429 0.188142857,16.7625 C0.189571429,16.7646429 0.191,16.7667857 0.192428571,16.7689286 C0.196714286,16.7760714 0.201714286,16.7832143 0.206714286,16.7903571 C0.208142857,16.7925 0.209571429,16.7946429 0.211714286,16.7967857 C0.216714286,16.8039286 0.222428571,16.8117857 0.228857143,16.8189286 C0.229571429,16.8196429 0.230285714,16.8210714 0.231,16.8225 C0.231714286,16.8225 0.231714286,16.8232143 0.231714286,16.8232143 C0.238857143,16.8317857 0.246,16.8403571 0.253857143,16.8482143 C0.255285714,16.8496429 0.256714286,16.8510714 0.258142857,16.8525 C0.263857143,16.8589286 0.270285714,16.8653571 0.276714286,16.8717857 C0.278857143,16.8746429 0.281714286,16.8775 0.284571429,16.8796429 C0.289571429,16.8846429 0.295285714,16.8896429 0.300285714,16.8946429 C0.303142857,16.8967857 0.306714286,16.8996429 0.309571429,16.9025 C0.315285714,16.9067857 0.320285714,16.9110714 0.326,16.9160714 C0.328857143,16.9182143 0.331714286,16.9203571 0.334571429,16.9225 C0.341,16.9275 0.347428571,16.9325 0.353857143,16.9367857 C0.356,16.9382143 0.358142857,16.9403571 0.361,16.9417857 C0.368857143,16.9475 0.377428571,16.9532143 0.386,16.9582143 C0.386714286,16.9589286 0.386714286,16.9589286 0.387428571,16.9596429 C0.426,16.9832143 0.467428571,17.0025 0.511,17.0182143 L0.511714286,17.0182143 C0.521714286,17.0217857 0.532428571,17.0246429 0.543142857,17.0282143 C0.543857143,17.0282143 0.544571429,17.0282143 0.545285714,17.0289286 C0.555285714,17.0317857 0.565285714,17.0339286 0.575285714,17.0360714 C0.576714286,17.0367857 0.578142857,17.0367857 0.578857143,17.0375 C0.588857143,17.0396429 0.598142857,17.0410714 0.607428571,17.0432143 C0.609571429,17.0432143 0.611714286,17.0432143 0.613142857,17.0439286 C0.622428571,17.0453571 0.631714286,17.0467857 0.640285714,17.0475 C0.643142857,17.0482143 0.645285714,17.0482143 0.647428571,17.0489286 C0.656,17.0496429 0.665285714,17.0503571 0.674571429,17.0510714 L0.681714286,17.0510714 C0.693142857,17.0517857 0.704571429,17.0525 0.716,17.0525 L17.1652857,17.0525 C17.4617143,17.0525 17.7174286,16.8439286 17.7774286,16.5532143 L19.6217143,7.5675 C19.7274286,7.0525 19.5974286,6.52392857 19.2652857,6.11678571" id="Fill-2"></path>
                </g>
            </g>
        </g>
        <g id="文件夹线2-1-copy" transform="translate(120.000000, 0.000000)">
            <g id="Group">
                <rect id="Rectangle-17" x="0" y="0" width="20" height="20"></rect>
                <g id="Page-1" transform="translate(0.000000, 1.428571)" fill="url(#linearGradient-2)">
                    <path d="M18.397,7.316 L16.6555714,15.8024286 L1.482,15.8024286 L3.26414286,7.11885714 C3.31057143,6.891 3.51271429,6.726 3.74485714,6.726 L17.9162857,6.726 C18.1191429,6.726 18.2412857,6.83957143 18.2962857,6.90671429 C18.3512857,6.97457143 18.4377143,7.11742857 18.397,7.316 M1.832,1.34028571 L7.45414286,1.34028571 C7.72485714,1.34028571 7.94485714,1.561 7.94485714,1.83171429 L7.94485714,1.94314286 C7.94485714,2.90385714 8.72628571,3.68457143 9.68628571,3.68457143 L16.6741429,3.68457143 C16.9448571,3.68457143 17.1648571,3.90457143 17.1648571,4.17528571 L17.1648571,5.476 L3.74485714,5.476 C2.922,5.476 2.20485714,6.061 2.03985714,6.86742857 L1.34057143,10.2731429 L1.34057143,1.83171429 C1.34057143,1.561 1.56057143,1.34028571 1.832,1.34028571 M18.4148571,5.54885714 L18.4148571,4.17528571 C18.4148571,3.21528571 17.6341429,2.43457143 16.6741429,2.43457143 L9.68628571,2.43457143 C9.41557143,2.43457143 9.19485714,2.21457143 9.19485714,1.94314286 L9.19485714,1.83171429 C9.19485714,0.871714286 8.41414286,0.0902857143 7.45414286,0.0902857143 L1.832,0.0902857143 C0.872,0.0902857143 0.0905714286,0.871714286 0.0905714286,1.83171429 L0.0905714286,16.4274286 L0.0905714286,16.4338571 C0.0905714286,16.4388571 0.0912857143,16.4438571 0.0912857143,16.4488571 C0.0912857143,16.4552857 0.092,16.4617143 0.092,16.4681429 C0.0927142857,16.4724286 0.0927142857,16.4767143 0.0927142857,16.481 C0.0934285714,16.4888571 0.0941428571,16.496 0.0955714286,16.5031429 C0.0955714286,16.5067143 0.0962857143,16.5095714 0.0962857143,16.5131429 C0.0977142857,16.5217143 0.0991428571,16.5302857 0.100571429,16.5395714 C0.101285714,16.541 0.101285714,16.5431429 0.102,16.5445714 C0.112714286,16.601 0.130571429,16.6552857 0.155571429,16.7052857 C0.156285714,16.7052857 0.156285714,16.706 0.156285714,16.706 C0.161285714,16.716 0.166285714,16.7252857 0.171285714,16.7338571 C0.172,16.736 0.172714286,16.7374286 0.174142857,16.7388571 C0.178428571,16.7467143 0.183428571,16.7545714 0.187714286,16.7624286 C0.189142857,16.7645714 0.190571429,16.7667143 0.192,16.7688571 C0.197,16.776 0.202,16.7831429 0.207,16.7902857 C0.208428571,16.7924286 0.209857143,16.7945714 0.211285714,16.7967143 C0.217,16.8038571 0.222714286,16.8117143 0.228428571,16.8188571 C0.229142857,16.8195714 0.230571429,16.821 0.231285714,16.8224286 L0.232,16.8231429 C0.239142857,16.8317143 0.246285714,16.8402857 0.253428571,16.8481429 C0.254857143,16.8502857 0.257,16.8517143 0.258428571,16.8531429 C0.264142857,16.8595714 0.269857143,16.866 0.276285714,16.8717143 C0.279142857,16.8745714 0.282,16.8774286 0.284857143,16.8802857 C0.289857143,16.8845714 0.294857143,16.8895714 0.300571429,16.8945714 C0.303428571,16.8967143 0.306285714,16.8995714 0.309857143,16.9024286 C0.314857143,16.9067143 0.320571429,16.9117143 0.325571429,16.916 C0.329142857,16.9181429 0.332,16.9202857 0.334857143,16.9231429 C0.341285714,16.9274286 0.347,16.9324286 0.353428571,16.9367143 C0.356285714,16.9381429 0.358428571,16.9402857 0.360571429,16.9417143 C0.369142857,16.9474286 0.377,16.9531429 0.385571429,16.9581429 C0.385571429,16.9581429 0.387,16.9588571 0.387714286,16.9595714 C0.426285714,16.9831429 0.467714286,17.0031429 0.511285714,17.0181429 L0.511285714,17.0181429 C0.522,17.0217143 0.532,17.0252857 0.542714286,17.0281429 C0.543428571,17.0281429 0.544142857,17.0281429 0.545571429,17.0288571 C0.554857143,17.0317143 0.564857143,17.0338571 0.574857143,17.036 C0.576285714,17.0367143 0.577714286,17.0367143 0.579142857,17.0374286 C0.588428571,17.0395714 0.598428571,17.041 0.607714286,17.0431429 C0.609857143,17.0431429 0.611285714,17.0438571 0.613428571,17.0438571 C0.622,17.0452857 0.631285714,17.0467143 0.640571429,17.0474286 C0.642714286,17.0481429 0.644857143,17.0481429 0.647714286,17.0488571 C0.656285714,17.0495714 0.665571429,17.0502857 0.674142857,17.051 C0.677,17.051 0.679142857,17.051 0.681285714,17.0517143 C0.692714286,17.0517143 0.704142857,17.0524286 0.715571429,17.0524286 L17.1648571,17.0524286 C17.462,17.0524286 17.7177143,16.8438571 17.7777143,16.5531429 L19.6212857,7.56742857 C19.727,7.05242857 19.597,6.52385714 19.2648571,6.11671429 C19.0412857,5.84242857 18.7455714,5.64742857 18.4148571,5.54885714" id="Fill-2"></path>
                </g>
            </g>
        </g>
        <g id="文件夹线3-1-copy" transform="translate(80.000000, 0.000000)">
            <g id="Group">
                <rect id="Rectangle-18" x="0" y="0" width="20" height="20"></rect>
                <g id="Page-1" transform="translate(0.000000, 1.428571)" fill="url(#linearGradient-6)">
                    <path d="M18.397,7.316 L16.6555714,15.8024286 L1.482,15.8024286 L3.26414286,7.11885714 C3.31057143,6.891 3.51271429,6.726 3.74485714,6.726 L17.9162857,6.726 C18.1191429,6.726 18.2412857,6.83957143 18.2962857,6.90671429 C18.3512857,6.97457143 18.4377143,7.11742857 18.397,7.316 M1.832,1.34028571 L7.45414286,1.34028571 C7.72485714,1.34028571 7.94485714,1.561 7.94485714,1.83171429 L7.94485714,1.94314286 C7.94485714,2.90385714 8.72628571,3.68457143 9.68628571,3.68457143 L16.6741429,3.68457143 C16.9448571,3.68457143 17.1648571,3.90457143 17.1648571,4.17528571 L17.1648571,5.476 L3.74485714,5.476 C2.922,5.476 2.20485714,6.061 2.03985714,6.86742857 L1.34057143,10.2731429 L1.34057143,1.83171429 C1.34057143,1.561 1.56057143,1.34028571 1.832,1.34028571 M18.4148571,5.54885714 L18.4148571,4.17528571 C18.4148571,3.21528571 17.6341429,2.43457143 16.6741429,2.43457143 L9.68628571,2.43457143 C9.41557143,2.43457143 9.19485714,2.21457143 9.19485714,1.94314286 L9.19485714,1.83171429 C9.19485714,0.871714286 8.41414286,0.0902857143 7.45414286,0.0902857143 L1.832,0.0902857143 C0.872,0.0902857143 0.0905714286,0.871714286 0.0905714286,1.83171429 L0.0905714286,16.4274286 L0.0905714286,16.4338571 C0.0905714286,16.4388571 0.0912857143,16.4438571 0.0912857143,16.4488571 C0.0912857143,16.4552857 0.092,16.4617143 0.092,16.4681429 C0.0927142857,16.4724286 0.0927142857,16.4767143 0.0927142857,16.481 C0.0934285714,16.4888571 0.0941428571,16.496 0.0955714286,16.5031429 C0.0955714286,16.5067143 0.0962857143,16.5095714 0.0962857143,16.5131429 C0.0977142857,16.5217143 0.0991428571,16.5302857 0.100571429,16.5395714 C0.101285714,16.541 0.101285714,16.5431429 0.102,16.5445714 C0.112714286,16.601 0.130571429,16.6552857 0.155571429,16.7052857 C0.156285714,16.7052857 0.156285714,16.706 0.156285714,16.706 C0.161285714,16.716 0.166285714,16.7252857 0.171285714,16.7338571 C0.172,16.736 0.172714286,16.7374286 0.174142857,16.7388571 C0.178428571,16.7467143 0.183428571,16.7545714 0.187714286,16.7624286 C0.189142857,16.7645714 0.190571429,16.7667143 0.192,16.7688571 C0.197,16.776 0.202,16.7831429 0.207,16.7902857 C0.208428571,16.7924286 0.209857143,16.7945714 0.211285714,16.7967143 C0.217,16.8038571 0.222714286,16.8117143 0.228428571,16.8188571 C0.229142857,16.8195714 0.230571429,16.821 0.231285714,16.8224286 L0.232,16.8231429 C0.239142857,16.8317143 0.246285714,16.8402857 0.253428571,16.8481429 C0.254857143,16.8502857 0.257,16.8517143 0.258428571,16.8531429 C0.264142857,16.8595714 0.269857143,16.866 0.276285714,16.8717143 C0.279142857,16.8745714 0.282,16.8774286 0.284857143,16.8802857 C0.289857143,16.8845714 0.294857143,16.8895714 0.300571429,16.8945714 C0.303428571,16.8967143 0.306285714,16.8995714 0.309857143,16.9024286 C0.314857143,16.9067143 0.320571429,16.9117143 0.325571429,16.916 C0.329142857,16.9181429 0.332,16.9202857 0.334857143,16.9231429 C0.341285714,16.9274286 0.347,16.9324286 0.353428571,16.9367143 C0.356285714,16.9381429 0.358428571,16.9402857 0.360571429,16.9417143 C0.369142857,16.9474286 0.377,16.9531429 0.385571429,16.9581429 C0.385571429,16.9581429 0.387,16.9588571 0.387714286,16.9595714 C0.426285714,16.9831429 0.467714286,17.0031429 0.511285714,17.0181429 L0.511285714,17.0181429 C0.522,17.0217143 0.532,17.0252857 0.542714286,17.0281429 C0.543428571,17.0281429 0.544142857,17.0281429 0.545571429,17.0288571 C0.554857143,17.0317143 0.564857143,17.0338571 0.574857143,17.036 C0.576285714,17.0367143 0.577714286,17.0367143 0.579142857,17.0374286 C0.588428571,17.0395714 0.598428571,17.041 0.607714286,17.0431429 C0.609857143,17.0431429 0.611285714,17.0438571 0.613428571,17.0438571 C0.622,17.0452857 0.631285714,17.0467143 0.640571429,17.0474286 C0.642714286,17.0481429 0.644857143,17.0481429 0.647714286,17.0488571 C0.656285714,17.0495714 0.665571429,17.0502857 0.674142857,17.051 C0.677,17.051 0.679142857,17.051 0.681285714,17.0517143 C0.692714286,17.0517143 0.704142857,17.0524286 0.715571429,17.0524286 L17.1648571,17.0524286 C17.462,17.0524286 17.7177143,16.8438571 17.7777143,16.5531429 L19.6212857,7.56742857 C19.727,7.05242857 19.597,6.52385714 19.2648571,6.11671429 C19.0412857,5.84242857 18.7455714,5.64742857 18.4148571,5.54885714" id="Fill-2"></path>
                </g>
            </g>
        </g>
        <g id="文件夹线4-1-copy" transform="translate(40.000000, 0.000000)">
            <g id="Group">
                <rect id="Rectangle-18" x="0" y="0" width="20" height="20"></rect>
                <g id="Page-1" transform="translate(0.000000, 1.428571)" fill="#7E6AFF">
                    <path d="M18.397,7.316 L16.6555714,15.8024286 L1.482,15.8024286 L3.26414286,7.11885714 C3.31057143,6.891 3.51271429,6.726 3.74485714,6.726 L17.9162857,6.726 C18.1191429,6.726 18.2412857,6.83957143 18.2962857,6.90671429 C18.3512857,6.97457143 18.4377143,7.11742857 18.397,7.316 M1.832,1.34028571 L7.45414286,1.34028571 C7.72485714,1.34028571 7.94485714,1.561 7.94485714,1.83171429 L7.94485714,1.94314286 C7.94485714,2.90385714 8.72628571,3.68457143 9.68628571,3.68457143 L16.6741429,3.68457143 C16.9448571,3.68457143 17.1648571,3.90457143 17.1648571,4.17528571 L17.1648571,5.476 L3.74485714,5.476 C2.922,5.476 2.20485714,6.061 2.03985714,6.86742857 L1.34057143,10.2731429 L1.34057143,1.83171429 C1.34057143,1.561 1.56057143,1.34028571 1.832,1.34028571 M18.4148571,5.54885714 L18.4148571,4.17528571 C18.4148571,3.21528571 17.6341429,2.43457143 16.6741429,2.43457143 L9.68628571,2.43457143 C9.41557143,2.43457143 9.19485714,2.21457143 9.19485714,1.94314286 L9.19485714,1.83171429 C9.19485714,0.871714286 8.41414286,0.0902857143 7.45414286,0.0902857143 L1.832,0.0902857143 C0.872,0.0902857143 0.0905714286,0.871714286 0.0905714286,1.83171429 L0.0905714286,16.4274286 L0.0905714286,16.4338571 C0.0905714286,16.4388571 0.0912857143,16.4438571 0.0912857143,16.4488571 C0.0912857143,16.4552857 0.092,16.4617143 0.092,16.4681429 C0.0927142857,16.4724286 0.0927142857,16.4767143 0.0927142857,16.481 C0.0934285714,16.4888571 0.0941428571,16.496 0.0955714286,16.5031429 C0.0955714286,16.5067143 0.0962857143,16.5095714 0.0962857143,16.5131429 C0.0977142857,16.5217143 0.0991428571,16.5302857 0.100571429,16.5395714 C0.101285714,16.541 0.101285714,16.5431429 0.102,16.5445714 C0.112714286,16.601 0.130571429,16.6552857 0.155571429,16.7052857 C0.156285714,16.7052857 0.156285714,16.706 0.156285714,16.706 C0.161285714,16.716 0.166285714,16.7252857 0.171285714,16.7338571 C0.172,16.736 0.172714286,16.7374286 0.174142857,16.7388571 C0.178428571,16.7467143 0.183428571,16.7545714 0.187714286,16.7624286 C0.189142857,16.7645714 0.190571429,16.7667143 0.192,16.7688571 C0.197,16.776 0.202,16.7831429 0.207,16.7902857 C0.208428571,16.7924286 0.209857143,16.7945714 0.211285714,16.7967143 C0.217,16.8038571 0.222714286,16.8117143 0.228428571,16.8188571 C0.229142857,16.8195714 0.230571429,16.821 0.231285714,16.8224286 L0.232,16.8231429 C0.239142857,16.8317143 0.246285714,16.8402857 0.253428571,16.8481429 C0.254857143,16.8502857 0.257,16.8517143 0.258428571,16.8531429 C0.264142857,16.8595714 0.269857143,16.866 0.276285714,16.8717143 C0.279142857,16.8745714 0.282,16.8774286 0.284857143,16.8802857 C0.289857143,16.8845714 0.294857143,16.8895714 0.300571429,16.8945714 C0.303428571,16.8967143 0.306285714,16.8995714 0.309857143,16.9024286 C0.314857143,16.9067143 0.320571429,16.9117143 0.325571429,16.916 C0.329142857,16.9181429 0.332,16.9202857 0.334857143,16.9231429 C0.341285714,16.9274286 0.347,16.9324286 0.353428571,16.9367143 C0.356285714,16.9381429 0.358428571,16.9402857 0.360571429,16.9417143 C0.369142857,16.9474286 0.377,16.9531429 0.385571429,16.9581429 C0.385571429,16.9581429 0.387,16.9588571 0.387714286,16.9595714 C0.426285714,16.9831429 0.467714286,17.0031429 0.511285714,17.0181429 L0.511285714,17.0181429 C0.522,17.0217143 0.532,17.0252857 0.542714286,17.0281429 C0.543428571,17.0281429 0.544142857,17.0281429 0.545571429,17.0288571 C0.554857143,17.0317143 0.564857143,17.0338571 0.574857143,17.036 C0.576285714,17.0367143 0.577714286,17.0367143 0.579142857,17.0374286 C0.588428571,17.0395714 0.598428571,17.041 0.607714286,17.0431429 C0.609857143,17.0431429 0.611285714,17.0438571 0.613428571,17.0438571 C0.622,17.0452857 0.631285714,17.0467143 0.640571429,17.0474286 C0.642714286,17.0481429 0.644857143,17.0481429 0.647714286,17.0488571 C0.656285714,17.0495714 0.665571429,17.0502857 0.674142857,17.051 C0.677,17.051 0.679142857,17.051 0.681285714,17.0517143 C0.692714286,17.0517143 0.704142857,17.0524286 0.715571429,17.0524286 L17.1648571,17.0524286 C17.462,17.0524286 17.7177143,16.8438571 17.7777143,16.5531429 L19.6212857,7.56742857 C19.727,7.05242857 19.597,6.52385714 19.2648571,6.11671429 C19.0412857,5.84242857 18.7455714,5.64742857 18.4148571,5.54885714" id="Fill-2"></path>
                </g>
            </g>
        </g>
        <g id="文件夹线5-1-copy" transform="translate(100.000000, 0.000000)">
            <g id="Group">
                <rect id="Rectangle-18" x="0" y="0" width="20" height="20"></rect>
                <g id="Page-1" transform="translate(0.000000, 1.428571)" fill="#F7E73A">
                    <path d="M18.397,7.316 L16.6555714,15.8024286 L1.482,15.8024286 L3.26414286,7.11885714 C3.31057143,6.891 3.51271429,6.726 3.74485714,6.726 L17.9162857,6.726 C18.1191429,6.726 18.2412857,6.83957143 18.2962857,6.90671429 C18.3512857,6.97457143 18.4377143,7.11742857 18.397,7.316 M1.832,1.34028571 L7.45414286,1.34028571 C7.72485714,1.34028571 7.94485714,1.561 7.94485714,1.83171429 L7.94485714,1.94314286 C7.94485714,2.90385714 8.72628571,3.68457143 9.68628571,3.68457143 L16.6741429,3.68457143 C16.9448571,3.68457143 17.1648571,3.90457143 17.1648571,4.17528571 L17.1648571,5.476 L3.74485714,5.476 C2.922,5.476 2.20485714,6.061 2.03985714,6.86742857 L1.34057143,10.2731429 L1.34057143,1.83171429 C1.34057143,1.561 1.56057143,1.34028571 1.832,1.34028571 M18.4148571,5.54885714 L18.4148571,4.17528571 C18.4148571,3.21528571 17.6341429,2.43457143 16.6741429,2.43457143 L9.68628571,2.43457143 C9.41557143,2.43457143 9.19485714,2.21457143 9.19485714,1.94314286 L9.19485714,1.83171429 C9.19485714,0.871714286 8.41414286,0.0902857143 7.45414286,0.0902857143 L1.832,0.0902857143 C0.872,0.0902857143 0.0905714286,0.871714286 0.0905714286,1.83171429 L0.0905714286,16.4274286 L0.0905714286,16.4338571 C0.0905714286,16.4388571 0.0912857143,16.4438571 0.0912857143,16.4488571 C0.0912857143,16.4552857 0.092,16.4617143 0.092,16.4681429 C0.0927142857,16.4724286 0.0927142857,16.4767143 0.0927142857,16.481 C0.0934285714,16.4888571 0.0941428571,16.496 0.0955714286,16.5031429 C0.0955714286,16.5067143 0.0962857143,16.5095714 0.0962857143,16.5131429 C0.0977142857,16.5217143 0.0991428571,16.5302857 0.100571429,16.5395714 C0.101285714,16.541 0.101285714,16.5431429 0.102,16.5445714 C0.112714286,16.601 0.130571429,16.6552857 0.155571429,16.7052857 C0.156285714,16.7052857 0.156285714,16.706 0.156285714,16.706 C0.161285714,16.716 0.166285714,16.7252857 0.171285714,16.7338571 C0.172,16.736 0.172714286,16.7374286 0.174142857,16.7388571 C0.178428571,16.7467143 0.183428571,16.7545714 0.187714286,16.7624286 C0.189142857,16.7645714 0.190571429,16.7667143 0.192,16.7688571 C0.197,16.776 0.202,16.7831429 0.207,16.7902857 C0.208428571,16.7924286 0.209857143,16.7945714 0.211285714,16.7967143 C0.217,16.8038571 0.222714286,16.8117143 0.228428571,16.8188571 C0.229142857,16.8195714 0.230571429,16.821 0.231285714,16.8224286 L0.232,16.8231429 C0.239142857,16.8317143 0.246285714,16.8402857 0.253428571,16.8481429 C0.254857143,16.8502857 0.257,16.8517143 0.258428571,16.8531429 C0.264142857,16.8595714 0.269857143,16.866 0.276285714,16.8717143 C0.279142857,16.8745714 0.282,16.8774286 0.284857143,16.8802857 C0.289857143,16.8845714 0.294857143,16.8895714 0.300571429,16.8945714 C0.303428571,16.8967143 0.306285714,16.8995714 0.309857143,16.9024286 C0.314857143,16.9067143 0.320571429,16.9117143 0.325571429,16.916 C0.329142857,16.9181429 0.332,16.9202857 0.334857143,16.9231429 C0.341285714,16.9274286 0.347,16.9324286 0.353428571,16.9367143 C0.356285714,16.9381429 0.358428571,16.9402857 0.360571429,16.9417143 C0.369142857,16.9474286 0.377,16.9531429 0.385571429,16.9581429 C0.385571429,16.9581429 0.387,16.9588571 0.387714286,16.9595714 C0.426285714,16.9831429 0.467714286,17.0031429 0.511285714,17.0181429 L0.511285714,17.0181429 C0.522,17.0217143 0.532,17.0252857 0.542714286,17.0281429 C0.543428571,17.0281429 0.544142857,17.0281429 0.545571429,17.0288571 C0.554857143,17.0317143 0.564857143,17.0338571 0.574857143,17.036 C0.576285714,17.0367143 0.577714286,17.0367143 0.579142857,17.0374286 C0.588428571,17.0395714 0.598428571,17.041 0.607714286,17.0431429 C0.609857143,17.0431429 0.611285714,17.0438571 0.613428571,17.0438571 C0.622,17.0452857 0.631285714,17.0467143 0.640571429,17.0474286 C0.642714286,17.0481429 0.644857143,17.0481429 0.647714286,17.0488571 C0.656285714,17.0495714 0.665571429,17.0502857 0.674142857,17.051 C0.677,17.051 0.679142857,17.051 0.681285714,17.0517143 C0.692714286,17.0517143 0.704142857,17.0524286 0.715571429,17.0524286 L17.1648571,17.0524286 C17.462,17.0524286 17.7177143,16.8438571 17.7777143,16.5531429 L19.6212857,7.56742857 C19.727,7.05242857 19.597,6.52385714 19.2648571,6.11671429 C19.0412857,5.84242857 18.7455714,5.64742857 18.4148571,5.54885714" id="Fill-2"></path>
                </g>
            </g>
        </g>
        <g id="文件夹线6-1-copy" transform="translate(60.000000, 0.000000)">
            <g id="Group">
                <rect id="Rectangle-18" x="0" y="0" width="20" height="20"></rect>
                <g id="Page-1" transform="translate(0.000000, 1.428571)" fill="#FF7675">
                    <path d="M18.397,7.316 L16.6555714,15.8024286 L1.482,15.8024286 L3.26414286,7.11885714 C3.31057143,6.891 3.51271429,6.726 3.74485714,6.726 L17.9162857,6.726 C18.1191429,6.726 18.2412857,6.83957143 18.2962857,6.90671429 C18.3512857,6.97457143 18.4377143,7.11742857 18.397,7.316 M1.832,1.34028571 L7.45414286,1.34028571 C7.72485714,1.34028571 7.94485714,1.561 7.94485714,1.83171429 L7.94485714,1.94314286 C7.94485714,2.90385714 8.72628571,3.68457143 9.68628571,3.68457143 L16.6741429,3.68457143 C16.9448571,3.68457143 17.1648571,3.90457143 17.1648571,4.17528571 L17.1648571,5.476 L3.74485714,5.476 C2.922,5.476 2.20485714,6.061 2.03985714,6.86742857 L1.34057143,10.2731429 L1.34057143,1.83171429 C1.34057143,1.561 1.56057143,1.34028571 1.832,1.34028571 M18.4148571,5.54885714 L18.4148571,4.17528571 C18.4148571,3.21528571 17.6341429,2.43457143 16.6741429,2.43457143 L9.68628571,2.43457143 C9.41557143,2.43457143 9.19485714,2.21457143 9.19485714,1.94314286 L9.19485714,1.83171429 C9.19485714,0.871714286 8.41414286,0.0902857143 7.45414286,0.0902857143 L1.832,0.0902857143 C0.872,0.0902857143 0.0905714286,0.871714286 0.0905714286,1.83171429 L0.0905714286,16.4274286 L0.0905714286,16.4338571 C0.0905714286,16.4388571 0.0912857143,16.4438571 0.0912857143,16.4488571 C0.0912857143,16.4552857 0.092,16.4617143 0.092,16.4681429 C0.0927142857,16.4724286 0.0927142857,16.4767143 0.0927142857,16.481 C0.0934285714,16.4888571 0.0941428571,16.496 0.0955714286,16.5031429 C0.0955714286,16.5067143 0.0962857143,16.5095714 0.0962857143,16.5131429 C0.0977142857,16.5217143 0.0991428571,16.5302857 0.100571429,16.5395714 C0.101285714,16.541 0.101285714,16.5431429 0.102,16.5445714 C0.112714286,16.601 0.130571429,16.6552857 0.155571429,16.7052857 C0.156285714,16.7052857 0.156285714,16.706 0.156285714,16.706 C0.161285714,16.716 0.166285714,16.7252857 0.171285714,16.7338571 C0.172,16.736 0.172714286,16.7374286 0.174142857,16.7388571 C0.178428571,16.7467143 0.183428571,16.7545714 0.187714286,16.7624286 C0.189142857,16.7645714 0.190571429,16.7667143 0.192,16.7688571 C0.197,16.776 0.202,16.7831429 0.207,16.7902857 C0.208428571,16.7924286 0.209857143,16.7945714 0.211285714,16.7967143 C0.217,16.8038571 0.222714286,16.8117143 0.228428571,16.8188571 C0.229142857,16.8195714 0.230571429,16.821 0.231285714,16.8224286 L0.232,16.8231429 C0.239142857,16.8317143 0.246285714,16.8402857 0.253428571,16.8481429 C0.254857143,16.8502857 0.257,16.8517143 0.258428571,16.8531429 C0.264142857,16.8595714 0.269857143,16.866 0.276285714,16.8717143 C0.279142857,16.8745714 0.282,16.8774286 0.284857143,16.8802857 C0.289857143,16.8845714 0.294857143,16.8895714 0.300571429,16.8945714 C0.303428571,16.8967143 0.306285714,16.8995714 0.309857143,16.9024286 C0.314857143,16.9067143 0.320571429,16.9117143 0.325571429,16.916 C0.329142857,16.9181429 0.332,16.9202857 0.334857143,16.9231429 C0.341285714,16.9274286 0.347,16.9324286 0.353428571,16.9367143 C0.356285714,16.9381429 0.358428571,16.9402857 0.360571429,16.9417143 C0.369142857,16.9474286 0.377,16.9531429 0.385571429,16.9581429 C0.385571429,16.9581429 0.387,16.9588571 0.387714286,16.9595714 C0.426285714,16.9831429 0.467714286,17.0031429 0.511285714,17.0181429 L0.511285714,17.0181429 C0.522,17.0217143 0.532,17.0252857 0.542714286,17.0281429 C0.543428571,17.0281429 0.544142857,17.0281429 0.545571429,17.0288571 C0.554857143,17.0317143 0.564857143,17.0338571 0.574857143,17.036 C0.576285714,17.0367143 0.577714286,17.0367143 0.579142857,17.0374286 C0.588428571,17.0395714 0.598428571,17.041 0.607714286,17.0431429 C0.609857143,17.0431429 0.611285714,17.0438571 0.613428571,17.0438571 C0.622,17.0452857 0.631285714,17.0467143 0.640571429,17.0474286 C0.642714286,17.0481429 0.644857143,17.0481429 0.647714286,17.0488571 C0.656285714,17.0495714 0.665571429,17.0502857 0.674142857,17.051 C0.677,17.051 0.679142857,17.051 0.681285714,17.0517143 C0.692714286,17.0517143 0.704142857,17.0524286 0.715571429,17.0524286 L17.1648571,17.0524286 C17.462,17.0524286 17.7177143,16.8438571 17.7777143,16.5531429 L19.6212857,7.56742857 C19.727,7.05242857 19.597,6.52385714 19.2648571,6.11671429 C19.0412857,5.84242857 18.7455714,5.64742857 18.4148571,5.54885714" id="Fill-2"></path>
                </g>
            </g>
        </g>
        <g id="Artboard-7"></g>
    </g>
</svg>